<svg width="200" height="200" viewBox="0 0 200 200" fill="none" xmlns="http://www.w3.org/2000/svg">
	<path fill="currentColor" d="M90.9135 42.6249C90.9135 40.625 92.5347 39.0038 94.5346 39.0038H105.461C107.461 39.0038 109.082 40.625 109.082 42.6249V159.334C109.082 161.333 107.461 162.955 105.461 162.955H94.5346C92.5347 162.955 90.9135 161.333 90.9135 159.334V42.6249Z" />
	<path fill="currentColor" fill-rule="evenodd" clip-rule="evenodd" d="M163.243 180.408C146.866 176.665 132.37 167.987 121.401 156.022C120.803 155.37 120.481 154.513 120.481 153.628L120.481 149.568C120.481 146.567 123.985 144.797 126.599 146.273C130.54 148.497 134.799 150.225 139.29 151.37C141.228 151.864 143.133 150.548 143.327 148.558C143.465 147.151 143.535 145.724 143.535 144.281C143.535 131.206 137.771 119.477 128.646 111.496C126.368 109.504 126.799 105.531 129.637 104.481L131.806 103.678C134.531 102.67 134.531 98.8168 131.806 97.8088C129.204 96.8459 129 93.1114 131.338 91.619C144.898 82.9659 154.643 68.8628 157.485 52.3965C157.826 50.426 156.379 48.622 154.38 48.5416C153.671 48.5131 152.959 48.4986 152.242 48.4986C142.923 48.4986 134.174 50.9385 126.599 55.2142C123.985 56.6897 120.481 54.9204 120.481 51.9186L120.481 48.3325C120.481 47.4474 120.803 46.5906 121.401 45.9382C136.296 29.6912 157.695 19.505 181.473 19.505C183.273 19.505 185.059 19.5634 186.83 19.6783C188.826 19.8078 190.268 21.6066 189.972 23.5842C185.845 51.1503 169.351 74.6723 146.317 88.3232C143.555 89.9601 143.778 94.2478 146.789 95.362L152.794 97.5841C155.947 98.7506 155.947 103.21 152.794 104.376L142.296 108.261C139.458 109.311 139.046 113.243 141.442 115.092C157.531 127.508 167.894 146.982 167.894 168.876C167.894 171.818 167.707 174.716 167.344 177.559C167.091 179.542 165.192 180.854 163.243 180.408Z" />
	<path fill="currentColor" d="M79.5178 149.568V153.629C79.5178 154.514 79.196 155.371 78.5978 156.023C67.6292 167.988 53.1329 176.665 36.757 180.408C34.8079 180.854 32.9092 179.542 32.6561 177.559C32.293 174.716 32.106 171.818 32.106 168.876C32.106 146.982 42.4691 127.508 58.5579 115.092C60.954 113.243 60.5424 109.311 57.7037 108.261L47.206 104.376C44.0534 103.21 44.0534 98.7507 47.206 97.5841L53.2109 95.3621C56.2221 94.2479 56.4445 89.9602 53.6825 88.3232C30.649 74.6724 14.1551 51.1504 10.0278 23.5843C9.73179 21.6067 11.1741 19.8079 13.1696 19.6784C14.9405 19.5634 16.7268 19.505 18.5268 19.505C42.3045 19.505 63.7033 29.6908 78.5978 45.937C79.1959 46.5894 79.5178 47.4462 79.5178 48.3314V51.9186C79.5178 54.9204 76.0139 56.6897 73.3998 55.2143C65.8246 50.9385 57.0755 48.4987 47.7566 48.4987C47.0404 48.4987 46.3276 48.5131 45.6184 48.5416C43.6204 48.6221 42.1732 50.426 42.5134 52.3966C45.3558 68.8629 55.1005 82.966 68.6606 91.6191C70.9994 93.1115 70.7945 96.846 68.1925 97.8088C65.4681 98.8169 65.4681 102.67 68.1925 103.678L70.3616 104.481C73.2002 105.531 73.6314 109.504 71.3531 111.496C62.2278 119.477 56.4641 131.206 56.4641 144.281C56.4641 145.724 56.5343 147.151 56.6716 148.558C56.8655 150.548 58.7712 151.864 60.7087 151.37C65.2 150.225 69.4588 148.497 73.3999 146.273C76.014 144.797 79.5178 146.567 79.5178 149.568Z" />
</svg>
