<svg width="77" height="178" viewBox="0 0 77 178" fill="none" xmlns="http://www.w3.org/2000/svg">
	<path fill-rule="evenodd" clip-rule="evenodd" d="M47.2362 177.739C29.1461 173.604 13.1327 164.018 1.01616 150.801C0.355445 150.08 -8.45889e-06 149.134 1.628e-10 148.156L3.05177e-05 143.672C5.92053e-05 140.356 3.87062 138.402 6.75822 140.032C11.1116 142.489 15.816 144.397 20.7773 145.663C22.9174 146.208 25.0224 144.754 25.2368 142.556C25.3884 141.002 25.466 139.426 25.466 137.831C25.466 123.388 19.0993 110.432 9.01923 101.616C6.50239 99.4153 6.97869 95.0272 10.1144 93.8669L12.5104 92.9803C15.5197 91.8667 15.5197 87.6104 12.5104 86.4968C9.63618 85.4332 9.40984 81.308 11.9933 79.6594C26.9721 70.101 37.7366 54.5222 40.8763 36.333C41.252 34.1563 39.6536 32.1636 37.4463 32.0747C36.6631 32.0432 35.8757 32.0273 35.0844 32.0273C24.7905 32.0273 15.1261 34.7224 6.75828 39.4456C3.87069 41.0754 6.03093e-05 39.1209 3.05177e-05 35.8051L1.628e-10 31.8438C-8.78442e-06 30.8661 0.355477 29.9196 1.01619 29.1989C17.4692 11.252 41.1076 0 67.3738 0C69.3621 0 71.3354 0.0644684 73.2915 0.191437C75.4958 0.334518 77.0889 2.32155 76.7619 4.50607C72.2028 34.9564 53.9831 60.9395 28.5396 76.0187C25.4886 77.8269 25.7343 82.5632 29.0605 83.7941L35.6939 86.2486C39.1764 87.5372 39.1764 92.4628 35.6939 93.7514L24.0977 98.0424C20.9621 99.2026 20.5074 103.546 23.1542 105.589C40.9263 119.304 52.3738 140.815 52.3738 165C52.3738 168.25 52.1673 171.451 51.7663 174.591C51.4866 176.782 49.3893 178.231 47.2362 177.739Z" fill="#3B82F6"/>
</svg>
