<svg width="77" height="178" viewBox="0 0 77 178" fill="none" xmlns="http://www.w3.org/2000/svg">
	<path d="M76.8034 143.672V148.158C76.8034 149.135 76.4479 150.082 75.7872 150.802C63.6709 164.018 47.6579 173.604 29.5685 177.738C27.4154 178.231 25.3181 176.782 25.0385 174.591C24.6375 171.451 24.4308 168.25 24.4308 165C24.4308 140.815 35.8783 119.304 53.6504 105.589C56.2973 103.546 55.8425 99.2026 52.7069 98.0424L41.1107 93.7514C37.6283 92.4628 37.6283 87.5372 41.1107 86.2486L47.744 83.7941C51.0702 82.5633 51.3159 77.827 48.2649 76.0187C22.8214 60.9396 4.6017 34.9564 0.0426154 4.50607C-0.284411 2.32155 1.30885 0.334534 3.51307 0.191452C5.46925 0.0644836 7.44252 0 9.4308 0C35.6965 0 59.3342 11.2515 75.7871 29.1976C76.4479 29.9183 76.8034 30.8647 76.8034 31.8425V35.8051C76.8034 39.1209 72.9329 41.0754 70.0453 39.4455C61.6774 34.7224 52.0129 32.0273 41.719 32.0273C40.9279 32.0273 40.1405 32.0432 39.3571 32.0747C37.15 32.1636 35.5514 34.1563 35.9271 36.333C39.067 54.5222 49.8313 70.101 64.8102 79.6594C67.3937 81.308 67.1674 85.4332 64.2931 86.4968C61.2837 87.6104 61.2837 91.8667 64.2931 92.9802L66.6892 93.8669C69.8248 95.0272 70.3012 99.4153 67.7844 101.616C57.7044 110.432 51.3375 123.388 51.3375 137.831C51.3375 139.425 51.4152 141.002 51.5668 142.556C51.781 144.754 53.8861 146.208 56.0263 145.663C60.9876 144.397 65.6919 142.489 70.0454 140.032C72.933 138.402 76.8034 140.356 76.8034 143.672Z" fill="#DB2777"/>
</svg>
