<svg xmlns="http://www.w3.org/2000/svg" viewBox="0 0 30 30" data-name="github icon">
	<path d="M14.8 0a14.8 14.8 0 00-4.679 28.849c.739.137.978-.322.978-.712v-2.755c-4.118.9-4.975-1.747-4.975-1.747a3.921 3.921 0 00-1.644-2.166c-1.343-.919.1-.9.1-.9A3.107 3.107 0 016.854 22.1a3.151 3.151 0 004.308 1.23 3.141 3.141 0 01.94-1.979c-3.287-.376-6.744-1.646-6.744-7.316a5.729 5.729 0 011.525-3.973 5.324 5.324 0 01.144-3.918s1.243-.4 4.072 1.517a14.031 14.031 0 017.412 0c2.826-1.914 4.067-1.517 4.067-1.517a5.319 5.319 0 01.146 3.918 5.714 5.714 0 011.523 3.973c0 5.686-3.463 6.938-6.759 7.3a3.538 3.538 0 011.012 2.74v4.062c0 .394.237.856.988.711A14.806 14.806 0 0014.8 0z" data-name="github icon" fill="currentColor"/>
</svg>
