<svg xmlns="http://www.w3.org/2000/svg" width="50" height="50" viewBox="0 0 50 50">
	<path d="M25 0a25 25 0 1025 25A25 25 0 0025 0zm-7.265 37.793h-6.088V19.475h6.089zm-3.044-20.819h-.04a3.173 3.173 0 11.08-6.329 3.175 3.175 0 11-.04 6.329zm25 20.819H33.6v-9.8c0-2.463-.882-4.142-3.085-4.142a3.333 3.333 0 00-3.124 2.227 4.17 4.17 0 00-.2 1.486v10.229H21.1s.08-16.6 0-18.318h6.088v2.594a6.045 6.045 0 015.487-3.024c4.006 0 7.01 2.618 7.01 8.244zm0 0" data-name="linkedin icon" fill="currentColor"/>
</svg>
