<svg width="64" height="65" viewBox="0 0 64 65" fill="none" xmlns="http://www.w3.org/2000/svg">
	<path d="M29.0923 14.1826C29.0923 13.5427 29.6111 13.0239 30.251 13.0239H33.7476C34.3875 13.0239 34.9063 13.5427 34.9063 14.1826V51.5294C34.9063 52.1693 34.3875 52.6881 33.7476 52.6881H30.251C29.6111 52.6881 29.0923 52.1693 29.0923 51.5294V14.1826Z" fill="#58237C">
		<animate
			attributeType="XML"
			attributeName="opacity"
			values="1.0; 0.0; 1.0"
			begin="0s"
			dur="1.2s"
			calcMode="linear"
			repeatCount="indefinite"
		/>
	</path>
	<path fill-rule="evenodd" clip-rule="evenodd" d="M52.2377 58.2732C46.9972 57.0754 42.3583 54.2984 38.8483 50.4697C38.6569 50.2609 38.5539 49.9868 38.5539 49.7035L38.5539 48.4045C38.5539 47.4439 39.6752 46.8777 40.5117 47.3499C41.7728 48.0617 43.1356 48.6145 44.5729 48.9811C45.1928 49.1393 45.8026 48.718 45.8647 48.0812C45.9086 47.6309 45.9311 47.1743 45.9311 46.7125C45.9311 42.5285 44.0868 38.7752 41.1667 36.2214C40.4376 35.5838 40.5756 34.3126 41.484 33.9765L42.178 33.7196C43.0498 33.397 43.0498 32.164 42.178 31.8414C41.3454 31.5333 41.2798 30.3383 42.0282 29.8607C46.3674 27.0917 49.4858 22.5787 50.3953 17.3095C50.5042 16.679 50.0411 16.1017 49.4017 16.0759C49.1748 16.0668 48.9467 16.0622 48.7175 16.0622C45.7355 16.0622 42.9358 16.843 40.5117 18.2112C39.6752 18.6834 38.5539 18.1172 38.5539 17.1566L38.5539 16.009C38.5539 15.7258 38.6569 15.4516 38.8483 15.2429C43.6145 10.0438 50.4623 6.78424 58.0714 6.78424C58.6474 6.78424 59.219 6.80292 59.7857 6.8397C60.4242 6.88115 60.8857 7.45676 60.791 8.0896C59.4703 16.9107 54.1922 24.4378 46.8215 28.8061C45.9377 29.3299 46.0089 30.7019 46.9724 31.0585L48.894 31.7695C49.9029 32.1428 49.9029 33.5697 48.894 33.943L45.5348 35.1861C44.6264 35.5222 44.4947 36.7804 45.2614 37.3722C50.4098 41.3452 53.726 47.5768 53.726 54.583C53.726 55.5243 53.6662 56.4517 53.55 57.3615C53.469 57.9962 52.8615 58.4158 52.2377 58.2732Z" fill="#3B82F6" />
	<path d="M25.4457 48.4045V49.7039C25.4457 49.9872 25.3427 50.2613 25.1513 50.4701C21.6413 54.2986 17.0025 57.0754 11.7622 58.2732C11.1385 58.4158 10.5309 57.9962 10.4499 57.3615C10.3337 56.4517 10.2739 55.5243 10.2739 54.583C10.2739 47.5768 13.5901 41.3452 18.7385 37.3722C19.5053 36.7805 19.3735 35.5222 18.4652 35.1861L15.1059 33.943C14.0971 33.5697 14.0971 32.1429 15.1059 31.7696L17.0275 31.0585C17.991 30.702 18.0622 29.3299 17.1784 28.8061C9.80766 24.4378 4.5296 16.9108 3.20888 8.08961C3.11414 7.45678 3.57569 6.88116 4.21423 6.83971C4.78092 6.80293 5.35255 6.78425 5.92854 6.78425C13.5374 6.78425 20.385 10.0437 25.1513 15.2425C25.3427 15.4513 25.4457 15.7254 25.4457 16.0087V17.1566C25.4457 18.1172 24.3244 18.6834 23.4879 18.2112C21.0638 16.843 18.2641 16.0622 15.2821 16.0622C15.0529 16.0622 14.8248 16.0668 14.5979 16.076C13.9585 16.1017 13.4954 16.679 13.6042 17.3095C14.5138 22.5788 17.6321 27.0918 21.9714 29.8607C22.7198 30.3383 22.6542 31.5334 21.8216 31.8415C20.9498 32.164 20.9498 33.3971 21.8216 33.7196L22.5157 33.9765C23.4241 34.3126 23.562 35.5838 22.833 36.2215C19.9129 38.7752 18.0685 42.5285 18.0685 46.7125C18.0685 47.1743 18.091 47.6309 18.1349 48.0812C18.1969 48.718 18.8068 49.1393 19.4267 48.9811C20.864 48.6145 22.2268 48.0617 23.4879 47.3499C24.3244 46.8777 25.4457 47.444 25.4457 48.4045Z" fill="#DB2777"/>
</svg>
