<?xml version="1.0" standalone="no"?>
<!DOCTYPE svg PUBLIC "-//W3C//DTD SVG 20010904//EN"
 "http://www.w3.org/TR/2001/REC-SVG-20010904/DTD/svg10.dtd">
<svg version="1.0" xmlns="http://www.w3.org/2000/svg"
 width="700.000000pt" height="700.000000pt" viewBox="0 0 700.000000 700.000000"
 preserveAspectRatio="xMidYMid meet">
<metadata>
Created by potrace 1.14, written by Peter Selinger 2001-2017
</metadata>
<g transform="translate(0.000000,700.000000) scale(0.100000,-0.100000)"
fill="#000000" stroke="none">
<path d="M464 6310 c-95 -14 -126 -70 -104 -193 90 -507 289 -969 591 -1372
236 -316 494 -555 834 -777 132 -86 156 -112 157 -164 2 -99 -17 -119 -183
-180 -73 -27 -142 -59 -155 -73 -45 -45 -43 -129 4 -173 17 -16 103 -53 226
-99 110 -40 212 -84 227 -96 40 -34 54 -116 29 -164 -6 -10 -54 -56 -108 -102
-288 -249 -465 -475 -623 -797 -79 -161 -173 -441 -193 -575 -3 -22 -8 -53
-11 -70 -3 -16 -7 -43 -10 -60 -30 -192 -24 -580 10 -661 17 -42 66 -73 109
-69 42 5 171 38 267 69 322 105 633 274 899 486 128 103 325 295 341 332 15
37 17 193 3 235 -14 41 -44 68 -91 84 -48 15 -74 8 -200 -54 -121 -60 -295
-124 -365 -133 -57 -8 -100 13 -122 60 -13 28 -17 65 -17 168 1 128 2 156 17
262 9 72 57 240 93 331 39 96 87 184 155 285 66 98 83 117 193 229 118 119
135 166 90 246 -19 33 -34 44 -96 70 -86 35 -115 66 -113 121 2 48 23 79 68
100 42 20 63 49 71 97 9 55 -18 96 -100 151 -183 125 -327 261 -495 471 -135
168 -306 537 -348 750 -2 11 -10 45 -17 75 -20 87 2 149 62 171 13 6 61 10
105 10 292 0 554 -61 822 -192 81 -39 134 -59 158 -59 46 0 113 41 127 78 17
42 14 204 -4 238 -19 37 -218 231 -317 309 -41 33 -77 63 -80 66 -10 12 -218
149 -295 194 -312 184 -714 319 -1075 360 -30 3 -68 9 -85 11 -45 8 -404 11
-451 4z"/>
<path d="M6187 6315 c-1 -2 -38 -5 -82 -9 -233 -19 -437 -62 -674 -142 -139
-47 -183 -66 -338 -140 -168 -80 -361 -203 -523 -332 -116 -93 -316 -286 -337
-326 -16 -31 -22 -155 -9 -218 9 -49 60 -89 120 -95 41 -5 93 12 166 56 40 24
146 67 251 101 185 62 376 92 573 92 88 0 121 -9 149 -39 34 -38 36 -72 10
-188 -113 -508 -418 -956 -850 -1251 -76 -51 -103 -89 -103 -141 0 -41 34 -90
74 -107 43 -18 69 -57 69 -102 0 -51 -31 -85 -104 -115 -82 -33 -116 -66 -124
-122 -10 -65 10 -99 127 -218 232 -237 375 -520 424 -844 16 -100 21 -311 9
-373 -13 -72 -63 -110 -133 -98 -73 11 -228 68 -362 132 -75 35 -145 64 -158
64 -43 0 -101 -31 -123 -66 -17 -29 -21 -51 -22 -138 -1 -126 4 -135 135 -262
233 -224 446 -377 713 -512 175 -88 439 -190 540 -208 22 -3 47 -10 57 -15 37
-19 104 -18 137 2 42 26 58 67 67 175 13 148 5 508 -11 534 -2 3 -6 28 -10 54
-9 78 -34 189 -66 298 -128 431 -385 830 -719 1118 -129 111 -149 132 -156
163 -4 18 -8 38 -7 45 0 6 1 21 2 33 3 49 58 82 266 158 208 75 246 98 261
156 10 40 -4 89 -34 118 -16 15 -79 45 -152 72 -69 26 -135 56 -147 67 -40 38
-50 112 -22 166 8 14 66 59 129 100 109 71 255 177 329 238 490 407 847 951
1026 1559 20 66 37 129 40 140 2 11 13 63 24 115 30 141 36 203 21 231 -36 66
-59 72 -268 74 -100 1 -183 1 -185 0z"/>
<path d="M3274 5628 c-32 -8 -61 -34 -79 -69 -11 -21 -14 -386 -14 -2097 l1
-2072 22 -32 c39 -59 60 -63 304 -63 213 1 219 2 251 24 18 13 39 38 46 55 10
25 13 443 13 2093 0 1886 -2 2066 -17 2095 -35 68 -46 71 -285 72 -119 1 -227
-2 -242 -6z"/>
</g>
</svg>
